# xmcd
#
# Track frame offsets:
#	150
#	14922
#	28771
#	39269
#	58154
#	68619
#	87223
#	102368
#	116700
#	157717
#	180953
#
# Disc length: 2652 seconds
#
# Revision: 0
# Processed by: cddbd v1.5.1PL2 Copyright (c) Steve Scherf et al.
# Submitted via: dBpowerAMP V4.0
#
DISCID=840a5a0b
DTITLE=John Arthur Martinez - Live In New England
DYEAR=1900
DGENRE=Country
TTITLE0=01 - Intro/When You Say Nothing At All
TTITLE1=02 - Tonight At Fiesta (Traditional Version)
TTITLE2=03 - The Armadillo Song
TTITLE3=04 - I Dare You
TTITLE4=05 - Frijoles Con Arroz
TTITLE5=06 - What A Christmas It Was
TTITLE6=07 - What Good Is I Love You
TTITLE7=08 - Trouble Rides A Fast Horse
TTITLE8=09 - Lone Starry Night/Pour A Little Love On It
TTITLE9=10 - Down In South Texas/La Bamba
TTITLE10=11 - Bonus: The Best Friend That I've Ever Had
EXTD=
EXTT0=
EXTT1=
EXTT2=
EXTT3=
EXTT4=
EXTT5=
EXTT6=
EXTT7=
EXTT8=
EXTT9=
EXTT10=
PLAYORDER=
